<?xml version="1.0" encoding="UTF-8" standalone="no"?>
<!DOCTYPE svg PUBLIC "-//W3C//DTD SVG 1.1//EN" "http://www.w3.org/Graphics/SVG/1.1/DTD/svg11.dtd">
<svg width="100%" height="100%" viewBox="0 0 210 213" version="1.1" xmlns="http://www.w3.org/2000/svg" xmlns:xlink="http://www.w3.org/1999/xlink" xml:space="preserve" xmlns:serif="http://www.serif.com/" style="fill-rule:evenodd;clip-rule:evenodd;stroke-linejoin:round;stroke-miterlimit:1.5;">
    <g transform="matrix(1,0,0,1,-913,-1009)">
        <g id="azzurro-icona" transform="matrix(0.319151,0,0,0.290096,711.765,961.358)">
            <rect x="632.243" y="164.227" width="655.514" height="731.06" style="fill:none;"/>
            <g id="ovale">
            </g>
            <g id="cagnetto">
            </g>
            <g id="scritte">
            </g>
            <g transform="matrix(1.3574,0,0,1.49335,-485.903,-80.0961)">
                <g id="ovale1" serif:id="ovale">
                    <circle cx="1064.37" cy="408.946" r="240.622" style="fill:rgb(196,219,240);"/>
                </g>
            </g>
            <g id="cagnetto1" serif:id="cagnetto" transform="matrix(2.73632,0,0,3.01038,-1236.87,-63.0619)">
                <g transform="matrix(0.985513,0,0,0.985513,655.959,64.9322)">
                    <path d="M96.723,89.934C91.516,91.663 91.033,102.768 96.05,105.396C98.314,106.582 102.382,104.304 102.212,101.946C102.173,101.41 101.75,93.442 101.75,93.102C101.75,90.698 99.221,89.104 96.723,89.934Z" style="fill:rgb(35,33,33);"/>
                </g>
                <g transform="matrix(0.985513,0,0,0.985513,655.959,64.9322)">
                    <path d="M118.25,103.507C112.321,104.74 112.102,110.949 117.904,111.902C130.475,113.966 140.255,105.351 123.49,103.745C122.677,103.667 119.644,103.217 118.25,103.507Z" style="fill:rgb(35,33,33);"/>
                </g>
                <g transform="matrix(0.985513,0,0,0.985513,655.959,64.9322)">
                    <path d="M165.625,88.785C159.945,90.873 159.678,106.015 164.887,106.342C170.288,106.681 176.893,95.318 170.239,89.737C169.072,88.758 167.246,88.189 165.625,88.785Z" style="fill:rgb(35,33,33);"/>
                </g>
                <g transform="matrix(0.420219,0,0,0.420219,380.643,41.3379)">
                    <path d="M1177.71,500.433C1130.49,508.418 1087.91,489.248 1086.66,442.32C1079.25,335.163 1085.9,269.144 1086.35,235.166C1086.43,228.486 1086.29,223.155 1085.67,219.095C1085.36,217.109 1085.37,215.568 1084.54,214.782C1050.11,182.211 969.551,158.974 918.178,176.432C860.762,195.944 841.906,241.008 841.035,290.658C841.035,290.686 841.034,290.713 841.034,290.74C839.697,339.889 848.441,382.16 878.84,420.237C880.907,422.826 883.801,430.908 886.292,443.131C894.657,484.188 905.497,583.326 911.435,639.612C905.493,637.518 899.589,635.262 893.738,632.851C888.579,583.949 880.416,509.864 872.795,463.856C870.886,452.333 869.05,442.857 867.332,436.441C866.665,433.951 865.53,430.988 865.384,430.611C832.511,389.313 822.607,343.6 824.051,290.318C825.055,233.65 847.177,182.618 912.712,160.347C969.363,141.095 1058.25,166.522 1096.22,202.441C1098.67,204.763 1100.71,208.301 1101.88,213.442C1103.04,218.546 1103.46,225.801 1103.33,235.386C1102.89,269.155 1096.24,334.786 1103.62,441.331C1103.63,441.458 1103.64,441.586 1103.64,441.713C1104.53,478.586 1140.27,490.365 1177.44,483.219C1179.55,482.814 1182.06,483.002 1184.77,484.413C1187.06,485.599 1190.09,488.247 1193.26,492.248C1206.15,508.53 1225.12,548.827 1225.12,548.827C1221.53,553.271 1217.5,558.087 1213.57,562.325C1213.57,562.325 1196.52,527.448 1184.51,509.214C1182.32,505.893 1179.2,502.172 1177.71,500.433Z" style="fill:rgb(35,33,33);"/>
                </g>
                <g transform="matrix(0.420219,0,0,0.420219,380.643,41.3379)">
                    <path d="M1093.81,210.277C1093.81,210.277 1239.63,391.006 1251.27,433.667C1262.9,476.328 1183.79,491.842 1183.79,491.842C1183.79,491.842 1096.14,516.663 1096.14,405.743C1096.14,294.824 1093.81,210.277 1093.81,210.277Z" style="fill:rgb(35,33,33);stroke:rgb(35,33,33);stroke-width:16.99px;"/>
                </g>
                <g transform="matrix(0.420219,0,0,0.420219,380.643,41.3379)">
                    <path d="M862.807,198.343C862.807,198.343 759.154,294.311 797.577,457.276C797.577,457.276 811.179,492.562 879.189,483.13L871.742,433.984L832.41,361.01C826.703,328.246 826.468,295.482 832.41,262.719C837.871,239.703 847.814,218.181 862.807,198.343Z" style="fill:rgb(35,33,33);stroke:rgb(35,33,33);stroke-width:16.99px;"/>
                </g>
                <g transform="matrix(0.420219,0,0,0.420219,380.643,41.3379)">
                    <path d="M1029.24,510.063C1029.24,510.063 1018.28,495.611 1004.97,497.951C993.852,499.907 985.985,513.254 989.101,524.615C992.966,538.709 1012.8,571.789 1023.63,572.046C1032.69,572.261 1064.93,537.279 1068.61,528.928C1073.22,518.465 1069.76,501.804 1057.26,499.964C1039.7,497.379 1029.24,510.063 1029.24,510.063Z" style="fill:rgb(35,87,137);"/>
                </g>
            </g>
        </g>
    </g>
</svg>
