<?xml version="1.0" encoding="UTF-8" standalone="no"?>
<!DOCTYPE svg PUBLIC "-//W3C//DTD SVG 1.1//EN" "http://www.w3.org/Graphics/SVG/1.1/DTD/svg11.dtd">
<svg width="100%" height="100%" viewBox="0 0 657 732" version="1.1" xmlns="http://www.w3.org/2000/svg" xmlns:xlink="http://www.w3.org/1999/xlink" xml:space="preserve" xmlns:serif="http://www.serif.com/" style="fill-rule:evenodd;clip-rule:evenodd;stroke-linejoin:round;stroke-miterlimit:1.5;">
    <g transform="matrix(1,0,0,1,-675,0)">
        <g id="azzurro-verticale" transform="matrix(1,0,0,1,43.361,-164.227)">
            <rect x="632.243" y="164.227" width="655.514" height="731.06" style="fill:none;"/>
            <g transform="matrix(1.1805,0,0,1.1805,-296.481,52.3889)">
                <g id="Layer2">
                    <circle cx="1064.37" cy="408.946" r="240.622" style="fill:rgb(196,219,240);"/>
                </g>
            </g>
            <g id="cagnetto" transform="matrix(2.01596,0,0,2.01596,-920.338,-461.659)">
                <g transform="matrix(1.16334,0,0,1.16334,759.811,338.317)">
                    <path d="M96.723,89.934C91.516,91.663 91.033,102.768 96.05,105.396C98.314,106.582 102.382,104.304 102.212,101.946C102.173,101.41 101.75,93.442 101.75,93.102C101.75,90.698 99.221,89.104 96.723,89.934Z" style="fill:rgb(35,33,33);"/>
                </g>
                <g transform="matrix(1.16334,0,0,1.16334,759.811,338.317)">
                    <path d="M118.25,103.507C112.321,104.74 112.102,110.949 117.904,111.902C130.475,113.966 140.255,105.351 123.49,103.745C122.677,103.667 119.644,103.217 118.25,103.507Z" style="fill:rgb(35,33,33);"/>
                </g>
                <g transform="matrix(1.16334,0,0,1.16334,759.811,338.317)">
                    <path d="M165.625,88.785C159.945,90.873 159.678,106.015 164.887,106.342C170.288,106.681 176.893,95.318 170.239,89.737C169.072,88.758 167.246,88.189 165.625,88.785Z" style="fill:rgb(35,33,33);"/>
                </g>
                <g transform="matrix(0.496041,0,0,0.496041,434.819,310.465)">
                    <path d="M1177.71,500.433C1130.49,508.418 1087.91,489.248 1086.66,442.32C1079.25,335.163 1085.9,269.144 1086.35,235.166C1086.43,228.486 1086.29,223.155 1085.67,219.095C1085.36,217.109 1085.37,215.568 1084.54,214.782C1050.11,182.211 969.551,158.974 918.178,176.432C860.762,195.944 841.906,241.008 841.035,290.658C841.035,290.686 841.034,290.713 841.034,290.74C839.697,339.889 848.441,382.16 878.84,420.237C880.907,422.826 883.801,430.908 886.292,443.131C894.657,484.188 905.497,583.326 911.435,639.612C905.493,637.518 899.589,635.262 893.738,632.851C888.579,583.949 880.416,509.864 872.795,463.856C870.886,452.333 869.05,442.857 867.332,436.441C866.665,433.951 865.53,430.988 865.384,430.611C832.511,389.313 822.607,343.6 824.051,290.318C825.055,233.65 847.177,182.618 912.712,160.347C969.363,141.095 1058.25,166.522 1096.22,202.441C1098.67,204.763 1100.71,208.301 1101.88,213.442C1103.04,218.546 1103.46,225.801 1103.33,235.386C1102.89,269.155 1096.24,334.786 1103.62,441.331C1103.63,441.458 1103.64,441.586 1103.64,441.713C1104.53,478.586 1140.27,490.365 1177.44,483.219C1179.55,482.814 1182.06,483.002 1184.77,484.413C1187.06,485.599 1190.09,488.247 1193.26,492.248C1206.15,508.53 1225.12,548.827 1225.12,548.827C1221.53,553.271 1217.5,558.087 1213.57,562.325C1213.57,562.325 1196.52,527.448 1184.51,509.214C1182.32,505.893 1179.2,502.172 1177.71,500.433Z" style="fill:rgb(35,33,33);"/>
                </g>
                <g transform="matrix(0.496041,0,0,0.496041,434.819,310.465)">
                    <path d="M1093.81,210.277C1093.81,210.277 1239.63,391.006 1251.27,433.667C1262.9,476.328 1183.79,491.842 1183.79,491.842C1183.79,491.842 1096.14,516.663 1096.14,405.743C1096.14,294.824 1093.81,210.277 1093.81,210.277Z" style="fill:rgb(35,33,33);stroke:rgb(35,33,33);stroke-width:16.99px;"/>
                </g>
                <g transform="matrix(0.496041,0,0,0.496041,434.819,310.465)">
                    <path d="M862.807,198.343C862.807,198.343 759.154,294.311 797.577,457.276C797.577,457.276 811.179,492.562 879.189,483.13L871.742,433.984L832.41,361.01C826.703,328.246 826.468,295.482 832.41,262.719C837.871,239.703 847.814,218.181 862.807,198.343Z" style="fill:rgb(35,33,33);stroke:rgb(35,33,33);stroke-width:16.99px;"/>
                </g>
                <g transform="matrix(0.496041,0,0,0.496041,434.819,310.465)">
                    <path d="M1029.24,510.063C1029.24,510.063 1018.28,495.611 1004.97,497.951C993.852,499.907 985.985,513.254 989.101,524.615C992.966,538.709 1012.8,571.789 1023.63,572.046C1032.69,572.261 1064.93,537.279 1068.61,528.928C1073.22,518.465 1069.76,501.804 1057.26,499.964C1039.7,497.379 1029.24,510.063 1029.24,510.063Z" style="fill:rgb(35,87,137);"/>
                </g>
            </g>
            <g id="scritte" transform="matrix(1,0,0,1,-43.7602,164.227)">
                <g transform="matrix(1,0,0,1,68.8304,-145.275)">
                    <g transform="matrix(0.686011,-0.727591,0.727591,0.686011,-15.4038,609.267)">
                        <text x="698.21px" y="322.481px" style="font-family:'Magilio-Regular', 'Magilio';font-size:60px;fill:rgb(35,87,137);">A</text>
                    </g>
                    <g transform="matrix(0.755565,-0.655074,0.655074,0.755565,-16.7058,546.494)">
                        <text x="723.936px" y="295.632px" style="font-family:'Magilio-Regular', 'Magilio';font-size:60px;fill:rgb(35,87,137);">s</text>
                    </g>
                    <g transform="matrix(0.806535,-0.591187,0.591187,0.806535,-21.1962,493.288)">
                        <text x="743.09px" y="279.029px" style="font-family:'Magilio-Regular', 'Magilio';font-size:60px;fill:rgb(35,87,137);">s</text>
                    </g>
                    <g transform="matrix(0.856263,-0.51654,0.51654,0.856263,-26.6441,432.27)">
                        <text x="763.39px" y="264.01px" style="font-family:'Magilio-Regular', 'Magilio';font-size:60px;fill:rgb(35,87,137);">o</text>
                    </g>
                    <g transform="matrix(0.899606,-0.436703,0.436703,0.899606,-29.2693,369.647)">
                        <text x="789.326px" y="248.482px" style="font-family:'Magilio-Regular', 'Magilio';font-size:60px;fill:rgb(35,87,137);">c</text>
                    </g>
                    <g transform="matrix(0.925469,-0.378823,0.378823,0.925469,-29.3821,325.511)">
                        <text x="812.557px" y="237.427px" style="font-family:'Magilio-Regular', 'Magilio';font-size:60px;fill:rgb(35,87,137);">i</text>
                    </g>
                    <g transform="matrix(0.94875,-0.316028,0.316028,0.94875,-31.1196,272.518)">
                        <text x="824.665px" y="232.207px" style="font-family:'Magilio-Regular', 'Magilio';font-size:60px;fill:rgb(35,87,137);">a</text>
                    </g>
                    <g transform="matrix(0.9745,-0.224387,0.224387,0.9745,-28.4202,196.649)">
                        <text x="851.001px" y="223.367px" style="font-family:'Magilio-Regular', 'Magilio';font-size:60px;fill:rgb(35,87,137);">z</text>
                    </g>
                    <g transform="matrix(0.988019,-0.15433,0.15433,0.988019,-22.9089,138.536)">
                        <text x="880.826px" y="216.819px" style="font-family:'Magilio-Regular', 'Magilio';font-size:60px;fill:rgb(35,87,137);">i</text>
                    </g>
                    <g transform="matrix(0.996411,-0.0846414,0.0846414,0.996411,-14.9484,76.4162)">
                        <text x="893.728px" y="214.5px" style="font-family:'Magilio-Regular', 'Magilio';font-size:60px;fill:rgb(35,87,137);">o</text>
                    </g>
                    <g transform="matrix(0.999914,0.0130805,-0.0130805,0.999914,2.85122,-12.068)">
                        <text x="923.978px" y="211.931px" style="font-family:'Magilio-Regular', 'Magilio';font-size:60px;fill:rgb(35,87,137);">n</text>
                    </g>
                    <g transform="matrix(0.994462,0.105093,-0.105093,0.994462,27.6089,-99.1386)">
                        <text x="954.536px" y="212.413px" style="font-family:'Magilio-Regular', 'Magilio';font-size:60px;fill:rgb(35,87,137);">e</text>
                    </g>
                    <g transform="matrix(0.969364,0.24563,-0.24563,0.969364,83.9943,-237.983)">
                        <text x="996.021px" y="217.725px" style="font-family:'Magilio-Regular', 'Magilio';font-size:60px;fill:rgb(35,87,137);">C</text>
                    </g>
                    <g transform="matrix(0.941827,0.336099,-0.336099,0.941827,135.452,-331.726)">
                        <text x="1026.01px" y="225.426px" style="font-family:'Magilio-Regular', 'Magilio';font-size:60px;fill:rgb(35,87,137);">e</text>
                    </g>
                    <g transform="matrix(0.90983,0.414982,-0.414982,0.90983,192.104,-415.124)">
                        <text x="1051.3px" y="234.488px" style="font-family:'Magilio-Regular', 'Magilio';font-size:60px;fill:rgb(35,87,137);">s</text>
                    </g>
                    <g transform="matrix(0.871467,0.490454,-0.490454,0.871467,258.212,-495.405)">
                        <text x="1074.29px" y="244.939px" style="font-family:'Magilio-Regular', 'Magilio';font-size:60px;fill:rgb(35,87,137);">e</text>
                    </g>
                    <g transform="matrix(0.822179,0.569228,-0.569228,0.822179,342.062,-578.96)">
                        <text x="1097.7px" y="258.014px" style="font-family:'Magilio-Regular', 'Magilio';font-size:60px;fill:rgb(35,87,137);">n</text>
                    </g>
                    <g transform="matrix(0.765007,0.644022,-0.644022,0.765007,441.272,-658.38)">
                        <text x="1122.81px" y="275.485px" style="font-family:'Magilio-Regular', 'Magilio';font-size:60px;fill:rgb(35,87,137);">a</text>
                    </g>
                    <g transform="matrix(0.714177,0.699965,-0.699965,0.714177,530.79,-716.143)">
                        <text x="1142.29px" y="291.867px" style="font-family:'Magilio-Regular', 'Magilio';font-size:60px;fill:rgb(35,87,137);">t</text>
                    </g>
                    <g transform="matrix(0.654792,0.755809,-0.755809,0.654792,633.384,-769.752)">
                        <text x="1159.35px" y="308.5px" style="font-family:'Magilio-Regular', 'Magilio';font-size:60px;fill:rgb(35,87,137);">e</text>
                    </g>
                </g>
                <g transform="matrix(1,0,0,1,49.2118,-163.861)">
                    <g transform="matrix(0.791476,0.611201,-0.611201,0.791476,637.885,-289.235)">
                        <text x="742.827px" y="790.228px" style="font-family:'Magilio-Regular', 'Magilio';font-size:60px;fill:rgb(35,87,137);">P</text>
                    </g>
                    <g transform="matrix(0.842154,0.539236,-0.539236,0.842154,557.044,-285.798)">
                        <text x="766.698px" y="808.596px" style="font-family:'Magilio-Regular', 'Magilio';font-size:60px;fill:rgb(35,87,137);">r</text>
                    </g>
                    <g transform="matrix(0.886623,0.462492,-0.462492,0.886623,470.521,-272.046)">
                        <text x="790.134px" y="823.664px" style="font-family:'Magilio-Regular', 'Magilio';font-size:60px;fill:rgb(35,87,137);">o</text>
                    </g>
                    <g transform="matrix(0.918954,0.394366,-0.394366,0.918954,395.931,-253.544)">
                        <text x="814.828px" y="836.512px" style="font-family:'Magilio-Regular', 'Magilio';font-size:60px;fill:rgb(35,87,137);">t</text>
                    </g>
                    <g transform="matrix(0.946902,0.321521,-0.321521,0.946902,316.436,-224.123)">
                        <text x="836.781px" y="845.993px" style="font-family:'Magilio-Regular', 'Magilio';font-size:60px;fill:rgb(35,87,137);">e</text>
                    </g>
                    <g transform="matrix(0.971064,0.23882,-0.23882,0.971064,229.006,-181.032)">
                        <text x="861.564px" y="854.519px" style="font-family:'Magilio-Regular', 'Magilio';font-size:60px;fill:rgb(35,87,137);">z</text>
                    </g>
                    <g transform="matrix(0.984864,0.17333,-0.17333,0.984864,162.816,-141.435)">
                        <text x="891.217px" y="861.513px" style="font-family:'Magilio-Regular', 'Magilio';font-size:60px;fill:rgb(35,87,137);">i</text>
                    </g>
                    <g transform="matrix(0.994168,0.107841,-0.107841,0.994168,98.4536,-92.4572)">
                        <text x="904.077px" y="864.064px" style="font-family:'Magilio-Regular', 'Magilio';font-size:60px;fill:rgb(35,87,137);">o</text>
                    </g>
                    <g transform="matrix(0.999874,0.0158546,-0.0158546,0.999874,13.8687,-14.7024)">
                        <text x="934.204px" y="867.334px" style="font-family:'Magilio-Regular', 'Magilio';font-size:60px;fill:rgb(35,87,137);">n</text>
                    </g>
                    <g transform="matrix(0.997515,-0.0704477,0.0704477,0.997515,-58.7332,70.1236)">
                        <text x="964.796px" y="867.74px" style="font-family:'Magilio-Regular', 'Magilio';font-size:60px;fill:rgb(35,87,137);">e</text>
                    </g>
                    <g transform="matrix(0.977148,-0.212559,0.212559,0.977148,-160.67,233.687)">
                        <text x="1006.5px" y="864.092px" style="font-family:'Magilio-Regular', 'Magilio';font-size:60px;fill:rgb(35,87,137);">A</text>
                    </g>
                    <g transform="matrix(0.949723,-0.313092,0.313092,0.949723,-215.58,369.54)">
                        <text x="1042.83px" y="856.012px" style="font-family:'Magilio-Regular', 'Magilio';font-size:60px;fill:rgb(35,87,137);">n</text>
                    </g>
                    <g transform="matrix(0.926483,-0.376338,0.376338,0.926483,-239.632,465.583)">
                        <text x="1071.85px" y="846.134px" style="font-family:'Magilio-Regular', 'Magilio';font-size:60px;fill:rgb(35,87,137);">i</text>
                    </g>
                    <g transform="matrix(0.889762,-0.456426,0.456426,0.889762,-264.694,587.706)">
                        <text x="1084.31px" y="841.815px" style="font-family:'Magilio-Regular', 'Magilio';font-size:60px;fill:rgb(35,87,137);">m</text>
                    </g>
                    <g transform="matrix(0.834163,-0.551518,0.551518,0.834163,-266.523,755.877)">
                        <text x="1123.63px" y="821.122px" style="font-family:'Magilio-Regular', 'Magilio';font-size:60px;fill:rgb(35,87,137);">a</text>
                    </g>
                    <g transform="matrix(0.798278,-0.60229,0.60229,0.798278,-253.901,853.143)">
                        <text x="1146.68px" y="805.612px" style="font-family:'Magilio-Regular', 'Magilio';font-size:60px;fill:rgb(35,87,137);">l</text>
                    </g>
                    <g transform="matrix(0.77382,-0.633406,0.633406,0.77382,-243.591,913.347)">
                        <text x="1157.1px" y="797.756px" style="font-family:'Magilio-Regular', 'Magilio';font-size:60px;fill:rgb(35,87,137);">i</text>
                    </g>
                </g>
            </g>
        </g>
    </g>
</svg>
