<svg width="64" height="65" viewBox="0 0 64 65" fill="none" xmlns="http://www.w3.org/2000/svg">
<path d="M37.5452 27.4072C36.5077 26.9311 35.4129 26.5912 34.2882 26.3962C34.278 26.3945 34.2675 26.396 34.2582 26.4004C34.2489 26.4049 34.2412 26.4122 34.2362 26.4212C34.0952 26.6712 33.9392 26.9982 33.8302 27.2542C32.6178 27.0702 31.3846 27.0702 30.1722 27.2542C30.0506 26.969 29.913 26.6909 29.7602 26.4212C29.755 26.4123 29.7473 26.4051 29.738 26.4006C29.7288 26.3962 29.7183 26.3946 29.7082 26.3962C28.5832 26.5904 27.4884 26.9303 26.4512 27.4072C26.4423 27.4106 26.4349 27.417 26.4302 27.4252C24.3562 30.5242 23.7872 33.5472 24.0662 36.5322C24.0672 36.5462 24.0762 36.5602 24.0872 36.5692C25.2949 37.4638 26.6458 38.1468 28.0822 38.5892C28.0923 38.5924 28.1032 38.5923 28.1133 38.5889C28.1233 38.5855 28.1321 38.5789 28.1382 38.5702C28.4462 38.1502 28.7202 37.7072 28.9562 37.2412C28.9594 37.2348 28.9613 37.2279 28.9616 37.2207C28.9619 37.2136 28.9607 37.2065 28.9581 37.1998C28.9554 37.1932 28.9514 37.1872 28.9462 37.1823C28.9411 37.1773 28.9349 37.1736 28.9282 37.1712C28.4973 37.0056 28.0801 36.8067 27.6802 36.5762C27.6729 36.572 27.6667 36.566 27.6623 36.5588C27.6579 36.5516 27.6553 36.5435 27.6548 36.535C27.6543 36.5266 27.6559 36.5182 27.6595 36.5106C27.663 36.5029 27.6684 36.4963 27.6752 36.4912C27.7592 36.4282 27.8432 36.3622 27.9232 36.2962C27.9302 36.2905 27.9387 36.2869 27.9477 36.2856C27.9567 36.2844 27.9658 36.2856 27.9742 36.2892C30.5932 37.4852 33.4282 37.4852 36.0152 36.2892C36.0238 36.2853 36.0333 36.284 36.0427 36.2852C36.052 36.2864 36.0608 36.2902 36.0682 36.2962C36.1482 36.3622 36.2322 36.4282 36.3162 36.4912C36.323 36.4962 36.3284 36.5028 36.3321 36.5104C36.3357 36.518 36.3374 36.5264 36.337 36.5348C36.3366 36.5432 36.3341 36.5514 36.3298 36.5586C36.3255 36.5658 36.3194 36.5719 36.3122 36.5762C35.9132 36.8088 35.4954 37.0075 35.0632 37.1702C35.0565 37.1728 35.0504 37.1767 35.0454 37.1818C35.0403 37.1869 35.0364 37.193 35.0338 37.1997C35.0313 37.2064 35.0302 37.2135 35.0306 37.2207C35.031 37.2278 35.0329 37.2348 35.0362 37.2412C35.2762 37.7062 35.5512 38.1502 35.8532 38.5702C35.8593 38.5789 35.868 38.5855 35.8781 38.5889C35.8881 38.5923 35.899 38.5924 35.9092 38.5892C37.348 38.1482 38.701 37.4651 39.9102 36.5692C39.9162 36.565 39.9212 36.5594 39.9248 36.553C39.9284 36.5467 39.9306 36.5395 39.9312 36.5322C40.2652 33.0812 39.3722 30.0832 37.5652 27.4262C37.5633 27.4218 37.5606 27.4179 37.5572 27.4146C37.5537 27.4113 37.5496 27.4088 37.5452 27.4072ZM29.3472 34.7142C28.5582 34.7142 27.9092 33.9902 27.9092 33.1022C27.9092 32.2132 28.5462 31.4892 29.3472 31.4892C30.1542 31.4892 30.7972 32.2192 30.7852 33.1022C30.7852 33.9902 30.1482 34.7142 29.3472 34.7142ZM34.6632 34.7142C33.8752 34.7142 33.2252 33.9902 33.2252 33.1022C33.2252 32.2132 33.8622 31.4892 34.6632 31.4892C35.4702 31.4892 36.1142 32.2192 36.1012 33.1022C36.1012 33.9902 35.4702 34.7142 34.6632 34.7142Z" fill="white"/>
</svg>
