<svg width="64" height="65" viewBox="0 0 64 65" fill="none" xmlns="http://www.w3.org/2000/svg">
<path d="M32.0007 24.5C29.8281 24.5 29.5554 24.5095 28.702 24.5483C27.8504 24.5873 27.269 24.7222 26.7604 24.92C26.2342 25.1243 25.7879 25.3977 25.3432 25.8425C24.8982 26.2872 24.6248 26.7335 24.4198 27.2595C24.2215 27.7684 24.0865 28.3499 24.0482 29.2012C24.01 30.0546 24 30.3274 24 32.5001C24 34.6728 24.0097 34.9446 24.0483 35.798C24.0875 36.6496 24.2223 37.231 24.42 37.7396C24.6245 38.2658 24.8978 38.7121 25.3427 39.1568C25.7872 39.6018 26.2335 39.8758 26.7594 40.0802C27.2684 40.278 27.8499 40.4128 28.7014 40.4518C29.5547 40.4907 29.8272 40.5002 31.9998 40.5002C34.1726 40.5002 34.4444 40.4907 35.2978 40.4518C36.1495 40.4128 36.7315 40.278 37.2405 40.0802C37.7665 39.8758 38.2121 39.6018 38.6567 39.1568C39.1017 38.7121 39.375 38.2658 39.58 37.7398C39.7767 37.231 39.9117 36.6495 39.9517 35.7981C39.99 34.9448 40 34.6728 40 32.5001C40 30.3274 39.99 30.0547 39.9517 29.2014C39.9117 28.3497 39.7767 27.7684 39.58 27.2597C39.375 26.7335 39.1017 26.2872 38.6567 25.8425C38.2116 25.3975 37.7666 25.1242 37.24 24.92C36.73 24.7222 36.1483 24.5873 35.2966 24.5483C34.4433 24.5095 34.1716 24.5 31.9982 24.5H32.0007ZM31.2831 25.9417C31.4961 25.9413 31.7337 25.9417 32.0007 25.9417C34.1368 25.9417 34.3899 25.9493 35.2335 25.9877C36.0135 26.0233 36.4368 26.1537 36.7188 26.2632C37.0921 26.4082 37.3583 26.5815 37.6381 26.8615C37.9181 27.1415 38.0915 27.4082 38.2368 27.7815C38.3463 28.0632 38.4768 28.4865 38.5123 29.2665C38.5507 30.1099 38.559 30.3632 38.559 32.4982C38.559 34.6333 38.5507 34.8866 38.5123 35.7299C38.4767 36.51 38.3463 36.9333 38.2368 37.215C38.0918 37.5883 37.9181 37.8541 37.6381 38.134C37.3581 38.414 37.0923 38.5873 36.7188 38.7323C36.4371 38.8423 36.0135 38.9723 35.2335 39.008C34.3901 39.0463 34.1368 39.0547 32.0007 39.0547C29.8646 39.0547 29.6114 39.0463 28.768 39.008C27.988 38.972 27.5647 38.8416 27.2825 38.7321C26.9092 38.5871 26.6425 38.4138 26.3625 38.1338C26.0825 37.8538 25.9092 37.5878 25.7639 37.2143C25.6544 36.9326 25.5238 36.5093 25.4883 35.7293C25.45 34.8859 25.4423 34.6326 25.4423 32.4962C25.4423 30.3599 25.45 30.1079 25.4883 29.2645C25.524 28.4845 25.6544 28.0612 25.7639 27.7792C25.9089 27.4059 26.0825 27.1392 26.3625 26.8592C26.6425 26.5792 26.9092 26.4059 27.2825 26.2605C27.5645 26.1505 27.988 26.0205 28.768 25.9847C29.5061 25.9513 29.7921 25.9413 31.2831 25.9397V25.9417ZM36.2711 27.27C35.7411 27.27 35.3111 27.6995 35.3111 28.2297C35.3111 28.7597 35.7411 29.1897 36.2711 29.1897C36.8011 29.1897 37.2311 28.7597 37.2311 28.2297C37.2311 27.6997 36.8011 27.2697 36.2711 27.2697V27.27ZM32.0007 28.3917C29.7319 28.3917 27.8924 30.2312 27.8924 32.5001C27.8924 34.7689 29.7319 36.6076 32.0007 36.6076C34.2696 36.6076 36.1085 34.7689 36.1085 32.5001C36.1085 30.2312 34.2694 28.3917 32.0006 28.3917H32.0007ZM32.0007 29.8334C33.4734 29.8334 34.6674 31.0272 34.6674 32.5001C34.6674 33.9728 33.4734 35.1668 32.0007 35.1668C30.5279 35.1668 29.3341 33.9728 29.3341 32.5001C29.3341 31.0272 30.5279 29.8334 32.0007 29.8334Z" fill="white"/>
</svg>
